<svg xmlns="http://www.w3.org/2000/svg" viewBox="0 0 500 500">
  <style>
    .skin { fill: #f8d5c2; }
    .hair { fill: #4a2f27; }
    .suit { fill: #4a6fa5; }
    .shirt { fill: #ffffff; }
    .accessory { fill: #7e57c2; }
    .background { fill: #eaecef; }
    .shadow { fill: rgba(0,0,0,0.1); }
  </style>
  
  <!-- Background Circle -->
  <circle cx="250" cy="250" r="240" class="background" />
  
  <!-- Shadow -->
  <ellipse cx="250" cy="440" rx="150" ry="30" class="shadow" />
  
  <!-- Body/Suit -->
  <path d="M180 320c0 0-40 80-40 110c0 30 10 40 40 40h140c30 0 40-10 40-40c0-30-40-110-40-110h-140z" class="suit" />
  
  <!-- Neck -->
  <path d="M230 290c0 0-20 10-20 20v40h80v-40c0-10-20-20-20-20h-40z" class="skin" />
  
  <!-- Shirt Collar -->
  <path d="M230 290c0 0-10 10-10 20v30h60v-30c0-10-10-20-10-20h-20z" class="shirt" />
  
  <!-- Head -->
  <circle cx="250" cy="210" r="80" class="skin" />
  
  <!-- Hair -->
  <path d="M250 130c-44.1 0-80 35.9-80 80c0 20 5 30 10 40c20-10 42-10 70-10c28 0 50 0 70 10c5-10 10-20 10-40c0-44.1-35.9-80-80-80z" class="hair" />
  
  <!-- Eyes -->
  <circle cx="220" cy="200" r="8" fill="#333" />
  <circle cx="280" cy="200" r="8" fill="#333" />
  
  <!-- Eyebrows -->
  <path d="M210 185c10-5 20-5 30 0" fill="none" stroke="#333" stroke-width="3" stroke-linecap="round" />
  <path d="M260 185c10-5 20-5 30 0" fill="none" stroke="#333" stroke-width="3" stroke-linecap="round" />
  
  <!-- Smile -->
  <path d="M220 240c10 10 50 10 60 0" fill="none" stroke="#333" stroke-width="3" stroke-linecap="round" />
  
  <!-- Accessory (Glasses) -->
  <circle cx="220" cy="200" r="15" fill="none" stroke="#7e57c2" stroke-width="3" />
  <circle cx="280" cy="200" r="15" fill="none" stroke="#7e57c2" stroke-width="3" />
  <path d="M235 200h30" fill="none" stroke="#7e57c2" stroke-width="3" />
  <path d="M205 195c-10 0-15-5-20-10" fill="none" stroke="#7e57c2" stroke-width="3" />
  <path d="M295 195c10 0 15-5 20-10" fill="none" stroke="#7e57c2" stroke-width="3" />
  
  <!-- Necklace -->
  <path d="M230 310c5 5 35 5 40 0" fill="none" stroke="#7e57c2" stroke-width="4" stroke-linecap="round" />
  <circle cx="250" cy="316" r="6" class="accessory" />
</svg>
